<?xml version="1.0" encoding="utf-8"?>
<!-- Generator: Adobe Illustrator 24.1.3, SVG Export Plug-In . SVG Version: 6.00 Build 0)  -->
<svg version="1.1" id="Capa_1" xmlns="http://www.w3.org/2000/svg" xmlns:xlink="http://www.w3.org/1999/xlink" x="0px" y="0px"
	 viewBox="0 0 65.38 66.7" style="enable-background:new 0 0 65.38 66.7;" xml:space="preserve">
<g>
	<path d="M23.89,36.22c-0.26-0.77-0.51-1.51-0.76-2.25c-1.75-5.15-3.5-10.3-5.25-15.45c-0.27-0.79-0.53-1.58-0.81-2.36
		c-0.24-0.7-0.76-1.08-1.51-1.09c-1.03-0.01-2.05,0-3.08-0.01c-0.67-0.01-1.11-0.54-0.94-1.15c0.1-0.37,0.36-0.65,0.73-0.65
		c1.32-0.01,2.64-0.07,3.94,0.06c1.24,0.13,2.1,0.92,2.54,2.09c0.46,1.24,0.87,2.51,1.29,3.76c0.07,0.22,0.17,0.3,0.41,0.3
		c10.57-0.01,21.13-0.01,31.7-0.01c1,0,1.68,0.55,1.73,1.45c0.01,0.24-0.05,0.5-0.13,0.74c-1.12,3.52-2.24,7.05-3.36,10.57
		c-0.35,1.1-0.7,2.2-1.05,3.29c-0.48,1.48-1.72,2.39-3.28,2.39c-6.93,0-13.87,0-20.8,0c-0.93,0-1.67,0.35-2.11,1.18
		c-0.78,1.44,0.24,3.15,1.89,3.22c0.12,0,0.23,0,0.35,0c8.04,0,16.08,0,24.12,0c0.17,0,0.35-0.01,0.52,0.01
		c0.47,0.04,0.82,0.44,0.81,0.9c0,0.47-0.34,0.86-0.81,0.91c-0.17,0.02-0.35,0.01-0.52,0.01c-8.13,0-16.25,0-24.38,0
		c-1.88,0-3.46-1.2-3.94-2.98c-0.53-1.97,0.5-4.02,2.41-4.79C23.67,36.31,23.76,36.27,23.89,36.22z M51.93,21.32
		c-10.4,0-20.76,0-31.14,0c0.03,0.1,0.05,0.16,0.07,0.22c1.61,4.73,3.21,9.46,4.81,14.19c0.09,0.26,0.2,0.33,0.47,0.33
		c6.6-0.01,13.19-0.01,19.79-0.01c0.93,0,1.42-0.37,1.71-1.26c1-3.14,2-6.27,3-9.41C51.06,24.04,51.49,22.7,51.93,21.32z"/>
	<path d="M45.1,44.65c2.49,0.08,4.4,2.11,4.32,4.57c-0.08,2.44-2.13,4.33-4.6,4.25c-2.39-0.07-4.31-2.15-4.22-4.58
		C40.69,46.5,42.73,44.57,45.1,44.65z M42.44,49.07c0,1.41,1.16,2.58,2.57,2.57c1.43-0.01,2.57-1.15,2.57-2.57
		c0-1.42-1.14-2.58-2.56-2.58C43.59,46.48,42.44,47.63,42.44,49.07z"/>
	<path d="M22.86,49.06c0-2.44,1.98-4.41,4.42-4.41c2.43,0,4.42,2,4.41,4.43c-0.01,2.43-2,4.41-4.44,4.4
		C24.83,53.46,22.86,51.48,22.86,49.06z M29.85,49.08c0.01-1.41-1.13-2.58-2.55-2.59c-1.44-0.01-2.61,1.15-2.61,2.59
		c0,1.4,1.17,2.56,2.58,2.56C28.68,51.64,29.84,50.49,29.85,49.08z"/>
</g>
</svg>
