<?xml version="1.0" encoding="utf-8"?>
<!-- Generator: Adobe Illustrator 24.1.3, SVG Export Plug-In . SVG Version: 6.00 Build 0)  -->
<svg version="1.1" id="Capa_1" xmlns="http://www.w3.org/2000/svg" xmlns:xlink="http://www.w3.org/1999/xlink" x="0px" y="0px"
	 viewBox="0 0 65.38 66.7" style="enable-background:new 0 0 65.38 66.7;" xml:space="preserve">
<style type="text/css">
	.st0{fill:#535353;}
	.st1{fill:#4D4E4C;}
	.st2{fill:#FFFFFF;}
</style>
<g>
	<path class="st0" d="M53.97,32.71c-2.75-4.7-4.34-9.81-5.58-15.06c-0.33-1.39-0.74-2.78-1.3-4.09c-1.03-2.4-3.12-3.72-5.31-4.89
		c-1.52-0.81-3.04-1.61-4.72-2.5c-0.16,0.74-0.33,1.51-0.51,2.29c-1.1-1.16-2.21-2.34-3.26-3.45c-1.24,1.22-2.33,2.28-3.42,3.34
		c-0.08-0.06-0.15-0.12-0.23-0.18c0.09-0.59,0.18-1.18,0.29-1.92c-0.53,0.29-0.9,0.56-1.32,0.72c-1.61,0.62-3.22,1.21-4.84,1.81
		c-2.33,0.87-4.12,2.27-5.24,4.28c-5.79,25.08-7.16,58.72,35.39,38.07c0.19-2.06,0.18-4.15,0-6.28c-0.18-2.05-0.53-4.08-0.79-6.01
		c1.24,2.62,1.51,5.57,1.7,8.77c1.56-2.26,2.01-4.52,1.72-6.95C56.23,37.84,55.4,35.15,53.97,32.71z M22.68,27.41
		c0.44,0.06,0.61,0.23,0.66,0.74C23.12,27.9,22.89,27.64,22.68,27.41z M23.47,27.74c0.35,0.15,0.66,0.28,1.04,0.45
		c-0.32,0.07-0.58,0.13-0.87,0.2C23.59,28.18,23.53,27.98,23.47,27.74z M23.78,28.53c0.3-0.07,0.56-0.13,0.85-0.2
		c0.04,0.36,0.07,0.69,0.12,1.09C24.42,29.1,24.12,28.83,23.78,28.53z M23.43,23.97c-0.59-0.15-1-0.52-1.19-1.11
		c-0.11-0.36-0.16-0.74-0.25-1.16c0.09-0.31,0.17-0.66,0.27-1c0.06-0.2,0.12-0.4,0.21-0.59c0.05-0.11,0.12-0.22,0.22-0.29
		c0.21-0.15,0.44-0.29,0.66-0.42c0.35-0.21,0.75-0.17,1.13-0.15c0.24,0.01,0.49,0.04,0.69,0.15c0.24,0.12,0.44,0.32,0.63,0.52
		c0.39,0.43,0.61,0.96,0.75,1.51c0.14,0.54,0,1.05-0.21,1.55c-0.1,0.23-0.13,0.48-0.19,0.72c-0.02,0.11-0.01,0.23-0.04,0.35
		c-0.03,0.15-0.11,0.21-0.28,0.18c-0.11-0.02-0.24,0.07-0.36,0.07c-0.22,0-0.45,0-0.67-0.04C24.34,24.18,23.88,24.09,23.43,23.97z
		 M24.81,28.32c0.35,0.14,0.66,0.27,1,0.41c-0.3,0.23-0.57,0.43-0.89,0.67C24.89,29.03,24.85,28.7,24.81,28.32z M26.18,30.67
		c-0.4-0.35-0.8-0.69-1.22-1.06c0.35-0.26,0.67-0.51,1.02-0.78c0.08,0.62,0.16,1.21,0.24,1.8C26.21,30.64,26.2,30.65,26.18,30.67z
		 M26.16,28.87c0.42,0.16,0.8,0.3,1.22,0.46c-0.32,0.49-0.63,0.94-0.97,1.45C26.33,30.11,26.25,29.5,26.16,28.87z M28.45,32.5
		c-0.64-0.51-1.28-1.02-1.93-1.53c0.32-0.48,0.63-0.94,0.96-1.44c0.35,1.01,0.68,1.97,1.02,2.93C28.48,32.47,28.46,32.48,28.45,32.5
		z M27.61,29.41c0.42,0.14,0.79,0.29,1.16,0.39c0.37,0.1,0.76,0.15,1.17,0.23c-0.4,0.85-0.79,1.7-1.22,2.6
		C28.34,31.54,27.98,30.49,27.61,29.41z M28.85,32.8c0.43-0.94,0.85-1.82,1.28-2.75c0.58,1.32,1.15,2.6,1.74,3.93
		C30.78,33.68,29.78,33.34,28.85,32.8z M31.98,33.81c-0.56-1.27-1.11-2.52-1.66-3.77c1.05,0.03,2.08,0.06,3.14,0.09
		C32.97,31.34,32.49,32.56,31.98,33.81z M32.09,34.01c0.51-1.26,1.01-2.49,1.5-3.73c0.02,0,0.05,0,0.07-0.01
		c0.53,1.22,1.07,2.45,1.61,3.69C34.22,34.27,33.18,34.25,32.09,34.01z M33.8,30.14c1.06-0.06,2.09-0.12,3.14-0.18
		c-0.51,1.25-1.02,2.51-1.55,3.81C34.85,32.54,34.33,31.34,33.8,30.14z M35.5,33.93c0.55-1.34,1.07-2.62,1.62-3.97
		c0.47,0.94,0.9,1.81,1.36,2.72C37.57,33.23,36.59,33.6,35.5,33.93z M37.32,29.94c0.42-0.09,0.8-0.15,1.17-0.26
		c0.37-0.11,0.73-0.27,1.14-0.42c-0.34,1.08-0.67,2.13-1.02,3.25C38.16,31.61,37.74,30.77,37.32,29.94z M38.88,32.36
		c-0.02-0.01-0.03-0.02-0.05-0.03c0.31-0.97,0.61-1.95,0.93-2.96c0.34,0.48,0.66,0.93,1,1.41C40.13,31.31,39.5,31.83,38.88,32.36z
		 M39.85,29.16c0.41-0.17,0.79-0.32,1.21-0.49c-0.07,0.64-0.13,1.24-0.2,1.92C40.51,30.08,40.19,29.63,39.85,29.16z M41.04,30.51
		c0.07-0.65,0.13-1.25,0.2-1.88c0.36,0.25,0.69,0.49,1.05,0.74C41.87,29.75,41.48,30.11,41.04,30.51z M42.31,29.16
		c-0.31-0.22-0.59-0.42-0.91-0.64c0.35-0.15,0.66-0.29,1-0.43C42.36,28.45,42.34,28.79,42.31,29.16z M42.54,29.15
		c-0.02-0.01-0.04-0.02-0.06-0.04c0.03-0.33,0.05-0.66,0.08-1.02c0.29,0.06,0.55,0.11,0.78,0.15
		C43.09,28.54,42.81,28.84,42.54,29.15z M43.56,28.11c-0.15-0.03-0.28-0.05-0.41-0.08c-0.12-0.02-0.25-0.05-0.4-0.12
		c0.3-0.14,0.61-0.28,0.96-0.45C43.66,27.71,43.62,27.9,43.56,28.11z M43.83,27.76c-0.02-0.32,0.09-0.43,0.73-0.65
		C44.31,27.34,44.05,27.57,43.83,27.76z M45.24,20.37c0,0.02-0.01,0.05-0.03,0.06c-0.25,0.19-0.22,0.47-0.24,0.73
		c-0.02,0.18-0.05,0.32-0.2,0.45c-0.14,0.13-0.2,0.35-0.33,0.5c-0.4,0.47-0.95,0.64-1.54,0.74c-0.33,0.05-0.66,0.15-0.97,0.28
		c-0.28,0.12-0.45,0.12-0.6-0.16c-0.14-0.26-0.31-0.54-0.35-0.82c-0.07-0.49-0.37-0.89-0.47-1.36c-0.07-0.3-0.12-0.6-0.15-0.75
		c0.06-0.68,0.2-1.16,0.5-1.61c0.66-0.98,1.81-1.26,2.77-0.91c0.51,0.19,0.93,0.44,1.17,0.9C45.11,19.02,45.31,19.67,45.24,20.37z"
		/>
	<path class="st1" d="M18.55,13.06c-0.36,0.64-0.65,1.34-0.87,2.11c-0.6,2.08-1.16,4.17-1.67,6.27c-0.89,3.73-2.36,7.21-4.23,10.54
		c-1.63,2.91-2.73,6.01-3,9.37c-0.18,2.2,0.32,4.22,1.72,6.03c0.24-2.93,0.57-5.82,1.72-8.43c-0.27,2.1-0.63,4.29-0.8,6.49
		c-0.46,5.87,0.54,11.47,3.25,16.74c0.38,0.73,0.87,1.07,1.63,1.07c2.6-0.01,5.21,0.06,7.8-0.09c1.98-0.11,2.17-0.48,2.03-2.49
		c-0.89-0.34-1.78-0.68-2.67-1.02c0.01-0.04,0.03-0.08,0.04-0.12c2.03,0.21,4.05,0.49,6.08,0.6c2.04,0.1,4.09,0.11,6.13,0
		c2.06-0.11,4.12-0.39,6.18-0.6c0.01,0.04,0.02,0.08,0.03,0.11c-0.89,0.34-1.78,0.68-2.75,1.06c0.07,0.53,0.09,1.11,0.23,1.67
		c0.06,0.22,0.34,0.48,0.57,0.54c0.71,0.17,1.44,0.32,2.16,0.34c2.22,0.05,4.45,0,6.67,0.06c1.26,0.03,1.75-0.73,2.23-1.7
		c1.64-3.37,2.57-6.86,2.9-10.45C11.38,71.79,12.76,38.14,18.55,13.06z"/>
	<path class="st2" d="M33.6,30.28c-0.5,1.23-1,2.47-1.5,3.73c1.09,0.24,2.12,0.25,3.19-0.04c-0.54-1.25-1.08-2.47-1.61-3.69
		C33.64,30.28,33.62,30.28,33.6,30.28z"/>
	<path class="st2" d="M30.32,30.04c0.55,1.25,1.1,2.49,1.66,3.77c0.5-1.25,0.99-2.47,1.48-3.68C32.4,30.1,31.37,30.07,30.32,30.04z"
		/>
	<path class="st2" d="M33.8,30.14c0.53,1.21,1.05,2.4,1.58,3.63c0.53-1.3,1.04-2.56,1.55-3.81C35.89,30.02,34.86,30.08,33.8,30.14z"
		/>
	<path class="st2" d="M35.5,33.93c1.08-0.33,2.07-0.7,2.98-1.25c-0.46-0.92-0.89-1.78-1.36-2.72C36.58,31.31,36.05,32.59,35.5,33.93
		z"/>
	<path class="st2" d="M28.85,32.8c0.93,0.54,1.93,0.88,3.02,1.17c-0.59-1.33-1.15-2.6-1.74-3.93C29.7,30.98,29.28,31.87,28.85,32.8z
		"/>
	<path class="st2" d="M28.77,29.8c-0.38-0.1-0.74-0.25-1.16-0.39c0.37,1.08,0.73,2.13,1.11,3.22c0.42-0.91,0.82-1.76,1.22-2.6
		C29.53,29.95,29.15,29.9,28.77,29.8z"/>
	<path class="st2" d="M38.49,29.67c-0.37,0.11-0.76,0.17-1.17,0.26c0.42,0.83,0.84,1.67,1.29,2.57c0.35-1.12,0.68-2.17,1.02-3.25
		C39.22,29.4,38.86,29.56,38.49,29.67z"/>
	<path class="st2" d="M38.83,32.33c0.02,0.01,0.03,0.02,0.05,0.03c0.63-0.53,1.25-1.05,1.89-1.59c-0.34-0.48-0.66-0.92-1-1.41
		C39.44,30.38,39.13,31.35,38.83,32.33z"/>
	<path class="st2" d="M26.52,30.96c0.65,0.51,1.29,1.02,1.93,1.53c0.02-0.01,0.03-0.02,0.05-0.04c-0.33-0.96-0.67-1.93-1.02-2.93
		C27.15,30.02,26.84,30.48,26.52,30.96z"/>
	<path class="st2" d="M39.85,29.16c0.34,0.47,0.66,0.92,1.01,1.42c0.07-0.67,0.13-1.28,0.2-1.92
		C40.64,28.84,40.26,28.99,39.85,29.16z"/>
	<path class="st2" d="M26.16,28.87c0.08,0.64,0.16,1.24,0.25,1.91c0.34-0.51,0.64-0.97,0.97-1.45
		C26.96,29.17,26.58,29.02,26.16,28.87z"/>
	<path class="st2" d="M24.96,29.61c0.42,0.37,0.82,0.71,1.22,1.06c0.01-0.01,0.03-0.02,0.04-0.03c-0.08-0.59-0.16-1.18-0.24-1.8
		C25.63,29.1,25.31,29.35,24.96,29.61z"/>
	<path class="st2" d="M41.04,30.51c0.44-0.4,0.83-0.76,1.24-1.14c-0.36-0.26-0.69-0.49-1.05-0.74
		C41.17,29.27,41.11,29.86,41.04,30.51z"/>
	<path class="st2" d="M24.81,28.32c0.04,0.38,0.08,0.72,0.12,1.09c0.32-0.24,0.59-0.45,0.89-0.67
		C25.47,28.59,25.17,28.46,24.81,28.32z"/>
	<path class="st2" d="M42.31,29.16c0.03-0.37,0.06-0.71,0.09-1.08c-0.34,0.15-0.65,0.28-1,0.43C41.72,28.75,42,28.94,42.31,29.16z"
		/>
	<path class="st2" d="M23.78,28.53c0.33,0.3,0.63,0.58,0.97,0.89c-0.04-0.4-0.08-0.73-0.12-1.09C24.35,28.4,24.08,28.46,23.78,28.53
		z"/>
	<path class="st2" d="M42.49,29.11c0.02,0.01,0.04,0.02,0.06,0.04c0.27-0.3,0.54-0.61,0.81-0.91c-0.22-0.04-0.49-0.09-0.78-0.15
		C42.54,28.45,42.51,28.78,42.49,29.11z"/>
	<path class="st2" d="M23.47,27.74c0.06,0.24,0.12,0.44,0.17,0.65c0.28-0.07,0.54-0.13,0.87-0.2C24.14,28.03,23.83,27.9,23.47,27.74
		z"/>
	<path class="st2" d="M43.16,28.04c0.13,0.02,0.26,0.05,0.41,0.08c0.05-0.21,0.1-0.41,0.16-0.65c-0.36,0.17-0.66,0.31-0.96,0.45
		C42.91,27.99,43.03,28.01,43.16,28.04z"/>
	<path class="st2" d="M22.68,27.41c0.21,0.23,0.43,0.49,0.66,0.74C23.3,27.64,23.12,27.47,22.68,27.41z"/>
	<path class="st2" d="M43.83,27.76c0.22-0.19,0.48-0.42,0.73-0.65C43.92,27.33,43.81,27.44,43.83,27.76z"/>
	<path class="st2" d="M43.63,17.51c-0.95-0.34-2.11-0.07-2.77,0.91c-0.3,0.44-0.43,0.93-0.5,1.61c0.03,0.15,0.08,0.46,0.15,0.75
		c0.11,0.47,0.4,0.87,0.47,1.36c0.04,0.28,0.21,0.56,0.35,0.82c0.15,0.28,0.31,0.28,0.6,0.16c0.31-0.13,0.64-0.22,0.97-0.28
		c0.59-0.1,1.13-0.28,1.54-0.74c0.13-0.15,0.19-0.37,0.33-0.5c0.15-0.13,0.18-0.27,0.2-0.45c0.02-0.26-0.02-0.55,0.24-0.73
		c0.01-0.01,0.02-0.04,0.03-0.06c0.08-0.7-0.12-1.35-0.43-1.96C44.57,17.95,44.15,17.7,43.63,17.51z"/>
	<path class="st2" d="M25.47,24.3c0.12,0,0.25-0.09,0.36-0.07c0.17,0.03,0.25-0.03,0.28-0.18c0.02-0.11,0.01-0.23,0.04-0.35
		c0.05-0.24,0.09-0.5,0.19-0.72c0.21-0.5,0.36-1.01,0.21-1.55c-0.14-0.55-0.36-1.08-0.75-1.51c-0.18-0.2-0.39-0.4-0.63-0.52
		c-0.2-0.11-0.46-0.13-0.69-0.15c-0.38-0.02-0.78-0.05-1.13,0.15c-0.22,0.13-0.45,0.26-0.66,0.42c-0.09,0.07-0.17,0.18-0.22,0.29
		c-0.08,0.19-0.15,0.39-0.21,0.59c-0.1,0.34-0.19,0.69-0.27,1c0.09,0.43,0.14,0.8,0.25,1.16c0.18,0.58,0.59,0.96,1.19,1.11
		c0.45,0.11,0.91,0.21,1.37,0.29C25.02,24.3,25.25,24.31,25.47,24.3z"/>
	<polygon class="st1" points="9.01,12.76 12.74,18.39 13.36,17.33 16.56,18.06 17.48,14.36 13.78,13.52 11.93,10.91 12.67,7.5 
		13.67,8.01 12.77,4.49 8.85,3.41 11.49,5.89 8.29,12.07 	"/>
	<polygon class="st0" points="52.01,17.33 52.64,18.39 56.37,12.76 57.09,12.07 53.88,5.89 56.53,3.41 52.61,4.49 51.71,8.01 
		52.71,7.5 53.45,10.91 51.6,13.52 47.9,14.36 48.82,18.06 	"/>
</g>
</svg>
